<svg id="SvgjsSvg1006" width="598" height="549" xmlns="http://www.w3.org/2000/svg" version="1.1" xmlns:xlink="http://www.w3.org/1999/xlink" xmlns:svgjs="http://svgjs.com/svgjs"><defs id="SvgjsDefs1007"><marker id="SvgjsMarker1114" markerWidth="16" markerHeight="12" refX="16" refY="6" viewBox="0 0 16 12" orient="auto" markerUnits="userSpaceOnUse" stroke-dasharray="0,0"><path id="SvgjsPath1115" d="M0,2 L14,6 L0,11 L0,2" fill="#323232" stroke="#323232" stroke-width="2"></path></marker></defs><g id="SvgjsG1008" transform="translate(28,25)"><path id="SvgjsPath1009" d="M 0 4Q 0 0 4 0L 226 0Q 230 0 230 4L 230 186Q 230 190 226 190L 4 190Q 0 190 0 186Z" stroke="rgba(50,50,50,1)" stroke-width="2" fill-opacity="1" fill="#ffffff"></path><path id="SvgjsPath1010" d="M 0 30L 230 30" stroke="rgba(50,50,50,1)" stroke-width="2" fill="none"></path><path id="SvgjsPath1011" d="M 0 0L 230 0L 230 190L 0 190Z" stroke="none" fill="none"></path><g id="SvgjsG1012"><text id="SvgjsText1013" font-family="微软雅黑" text-anchor="middle" font-size="13px" width="210px" fill="#323232" font-weight="700" align="middle" anchor="middle" family="微软雅黑" size="13px" weight="700" font-style="" opacity="1" y="5.05" transform="rotate(0)"><tspan id="SvgjsTspan1014" dy="16" x="115"><tspan id="SvgjsTspan1015" style="text-decoration:;">Modal</tspan></tspan></text></g><g id="SvgjsG1016"><text id="SvgjsText1017" font-family="微软雅黑" text-anchor="start" font-size="13px" width="210px" fill="#323232" font-weight="400" align="middle" anchor="start" family="微软雅黑" size="13px" weight="400" font-style="" opacity="1" y="28.05" transform="rotate(0)"><tspan id="SvgjsTspan1018" dy="16" x="10"><tspan id="SvgjsTspan1019" style="text-decoration:;">Props:</tspan></tspan><tspan id="SvgjsTspan1020" dy="16" x="10"><tspan id="SvgjsTspan1021" style="text-decoration:;">    visible: boolean</tspan></tspan><tspan id="SvgjsTspan1022" dy="16" x="10"><tspan id="SvgjsTspan1023" style="text-decoration:;">    title: string</tspan></tspan><tspan id="SvgjsTspan1024" dy="16" x="10"><tspan id="SvgjsTspan1025" style="text-decoration:;">    footer: any</tspan></tspan><tspan id="SvgjsTspan1026" dy="16" x="10"><tspan id="SvgjsTspan1027" style="text-decoration:;">    width: number</tspan></tspan><tspan id="SvgjsTspan1028" dy="16" x="10"><tspan id="SvgjsTspan1029" style="text-decoration:;">    okText: string</tspan></tspan><tspan id="SvgjsTspan1030" dy="16" x="10"><tspan id="SvgjsTspan1031" style="text-decoration:;">    cancelText: string</tspan></tspan><tspan id="SvgjsTspan1032" dy="16" x="10"><tspan id="SvgjsTspan1033" style="text-decoration:;">    onOk: function    onCancel: </tspan></tspan><tspan id="SvgjsTspan1034" dy="16" x="10"><tspan id="SvgjsTspan1035" style="text-decoration:;">function</tspan></tspan><tspan id="SvgjsTspan1036" dy="16" x="10"><tspan id="SvgjsTspan1037" style="text-decoration:;"> </tspan></tspan></text></g></g><g id="SvgjsG1038" transform="translate(235,31)"><path id="SvgjsPath1039" d="M 2 0L 20 0L 20 20L 2 20L 2 16L 0 16L 0 12L 2 12L 2 8L 0 8L 0 4L 2 4L 2 0Z" stroke="rgba(50,50,50,1)" stroke-width="2" fill-opacity="1" fill="#ffffff"></path><path id="SvgjsPath1040" d="M 2 16L 4 16L 4 12L 2 12M 2 8L 4 8L 4 4L 2 4" stroke="rgba(50,50,50,1)" stroke-width="2" fill="none"></path><path id="SvgjsPath1041" d="M 2 0L 20 0L 20 20L 2 20L 2 16L 0 16L 0 12L 2 12L 2 8L 0 8L 0 4L 2 4L 2 0Z" stroke="none" fill="none"></path><g id="SvgjsG1042"><text id="SvgjsText1043" font-family="微软雅黑" text-anchor="middle" font-size="13px" width="8px" fill="#323232" font-weight="700" align="middle" anchor="middle" family="微软雅黑" size="13px" weight="700" font-style="" opacity="1" y="0.050000000000000044" transform="rotate(0)"></text></g></g><g id="SvgjsG1044" transform="translate(25,286)"><path id="SvgjsPath1045" d="M 0 4Q 0 0 4 0L 226 0Q 230 0 230 4L 230 234Q 230 238 226 238L 4 238Q 0 238 0 234Z" stroke="rgba(50,50,50,1)" stroke-width="2" fill-opacity="1" fill="#ffffff"></path><path id="SvgjsPath1046" d="M 0 30L 230 30" stroke="rgba(50,50,50,1)" stroke-width="2" fill="none"></path><path id="SvgjsPath1047" d="M 0 0L 230 0L 230 238L 0 238Z" stroke="none" fill="none"></path><g id="SvgjsG1048"><text id="SvgjsText1049" font-family="微软雅黑" text-anchor="middle" font-size="13px" width="210px" fill="#323232" font-weight="700" align="middle" anchor="middle" family="微软雅黑" size="13px" weight="700" font-style="" opacity="1" y="5.05" transform="rotate(0)"><tspan id="SvgjsTspan1050" dy="16" x="115"><tspan id="SvgjsTspan1051" style="text-decoration:;">Bar</tspan></tspan></text></g><g id="SvgjsG1052"><text id="SvgjsText1053" font-family="微软雅黑" text-anchor="start" font-size="13px" width="210px" fill="#323232" font-weight="400" align="middle" anchor="start" family="微软雅黑" size="13px" weight="400" font-style="" opacity="1" y="28.05" transform="rotate(0)"><tspan id="SvgjsTspan1054" dy="16" x="10"><tspan id="SvgjsTspan1055" style="text-decoration:;">Props:</tspan></tspan><tspan id="SvgjsTspan1056" dy="16" x="10"><tspan id="SvgjsTspan1057" style="text-decoration:;">    options: object</tspan></tspan><tspan id="SvgjsTspan1058" dy="16" x="10"><tspan id="SvgjsTspan1059" style="text-decoration:;"> </tspan></tspan><tspan id="SvgjsTspan1060" dy="16" x="10"><tspan id="SvgjsTspan1061" style="text-decoration:;">Methods:</tspan></tspan><tspan id="SvgjsTspan1062" dy="16" x="10"><tspan id="SvgjsTspan1063" style="text-decoration:;">     clearCanvas: 清除画布</tspan></tspan><tspan id="SvgjsTspan1064" dy="16" x="10"><tspan id="SvgjsTspan1065" style="text-decoration:;">     drawBarChart: 绘制柱状图主函</tspan></tspan><tspan id="SvgjsTspan1066" dy="16" x="10"><tspan id="SvgjsTspan1067" style="text-decoration:;">数</tspan></tspan><tspan id="SvgjsTspan1068" dy="16" x="10"><tspan id="SvgjsTspan1069" style="text-decoration:;">     drawAxis: 绘制坐标轴</tspan></tspan><tspan id="SvgjsTspan1070" dy="16" x="10"><tspan id="SvgjsTspan1071" style="text-decoration:;">     drawYLabels： 绘制Y轴坐标</tspan></tspan><tspan id="SvgjsTspan1072" dy="16" x="10"><tspan id="SvgjsTspan1073" style="text-decoration:;">     drawXLabels： 绘制X轴坐标</tspan></tspan><tspan id="SvgjsTspan1074" dy="16" x="10"><tspan id="SvgjsTspan1075" style="text-decoration:;">     drawBarData： 绘制柱状图</tspan></tspan><tspan id="SvgjsTspan1076" dy="16" x="10"><tspan id="SvgjsTspan1077" style="text-decoration:;">     </tspan></tspan><tspan id="SvgjsTspan1078" dy="16" x="10"><tspan id="SvgjsTspan1079" style="text-decoration:;"> </tspan></tspan></text></g></g><g id="SvgjsG1080" transform="translate(235,293)"><path id="SvgjsPath1081" d="M 2 0L 20 0L 20 20L 2 20L 2 16L 0 16L 0 12L 2 12L 2 8L 0 8L 0 4L 2 4L 2 0Z" stroke="rgba(50,50,50,1)" stroke-width="2" fill-opacity="1" fill="#ffffff"></path><path id="SvgjsPath1082" d="M 2 16L 4 16L 4 12L 2 12M 2 8L 4 8L 4 4L 2 4" stroke="rgba(50,50,50,1)" stroke-width="2" fill="none"></path><path id="SvgjsPath1083" d="M 2 0L 20 0L 20 20L 2 20L 2 16L 0 16L 0 12L 2 12L 2 8L 0 8L 0 4L 2 4L 2 0Z" stroke="none" fill="none"></path><g id="SvgjsG1084"><text id="SvgjsText1085" font-family="微软雅黑" text-anchor="middle" font-size="13px" width="8px" fill="#323232" font-weight="700" align="middle" anchor="middle" family="微软雅黑" size="13px" weight="700" font-style="" opacity="1" y="0.050000000000000044" transform="rotate(0)"></text></g></g><g id="SvgjsG1086" transform="translate(343,366)"><path id="SvgjsPath1087" d="M 0 4Q 0 0 4 0L 226 0Q 230 0 230 4L 230 154Q 230 158 226 158L 4 158Q 0 158 0 154Z" stroke="rgba(50,50,50,1)" stroke-width="2" fill-opacity="1" fill="#ffffff"></path><path id="SvgjsPath1088" d="M 0 30L 230 30" stroke="rgba(50,50,50,1)" stroke-width="2" fill="none"></path><path id="SvgjsPath1089" d="M 0 0L 230 0L 230 158L 0 158Z" stroke="none" fill="none"></path><g id="SvgjsG1090"><text id="SvgjsText1091" font-family="微软雅黑" text-anchor="middle" font-size="13px" width="210px" fill="#323232" font-weight="700" align="middle" anchor="middle" family="微软雅黑" size="13px" weight="700" font-style="" opacity="1" y="5.05" transform="rotate(0)"><tspan id="SvgjsTspan1092" dy="16" x="115"><tspan id="SvgjsTspan1093" style="text-decoration:;">options</tspan></tspan></text></g><g id="SvgjsG1094"><text id="SvgjsText1095" font-family="微软雅黑" text-anchor="start" font-size="13px" width="210px" fill="#323232" font-weight="400" align="middle" anchor="start" family="微软雅黑" size="13px" weight="400" font-style="" opacity="1" y="28.05" transform="rotate(0)"><tspan id="SvgjsTspan1096" dy="16" x="10"><tspan id="SvgjsTspan1097" style="text-decoration:;">width: number</tspan></tspan><tspan id="SvgjsTspan1098" dy="16" x="10"><tspan id="SvgjsTspan1099" style="text-decoration:;">height: number</tspan></tspan><tspan id="SvgjsTspan1100" dy="16" x="10"><tspan id="SvgjsTspan1101" style="text-decoration:;">chartZone: array</tspan></tspan><tspan id="SvgjsTspan1102" dy="16" x="10"><tspan id="SvgjsTspan1103" style="text-decoration:;">yAxisLabel: array</tspan></tspan><tspan id="SvgjsTspan1104" dy="16" x="10"><tspan id="SvgjsTspan1105" style="text-decoration:;">yMax: number</tspan></tspan><tspan id="SvgjsTspan1106" dy="16" x="10"><tspan id="SvgjsTspan1107" style="text-decoration:;">xAsixLabel: array</tspan></tspan><tspan id="SvgjsTspan1108" dy="16" x="10"><tspan id="SvgjsTspan1109" style="text-decoration:;">data: array</tspan></tspan><tspan id="SvgjsTspan1110" dy="16" x="10"><tspan id="SvgjsTspan1111" style="text-decoration:;">barStyle: object</tspan></tspan></text></g></g><g id="SvgjsG1112"><path id="SvgjsPath1113" d="M255 325L458 325L458 366" stroke="#323232" stroke-width="2" fill="none" marker-end="url(#SvgjsMarker1114)"></path></g></svg>